<?xml version="1.0" encoding="utf-8"?>
<!-- Generator: Adobe Illustrator 17.0.0, SVG Export Plug-In . SVG Version: 6.00 Build 0)  -->
<!DOCTYPE svg PUBLIC "-//W3C//DTD SVG 1.1//EN" "http://www.w3.org/Graphics/SVG/1.1/DTD/svg11.dtd">
<svg version="1.1" id="Layer_1" xmlns:sketch="http://www.bohemiancoding.com/sketch/ns"
	 xmlns="http://www.w3.org/2000/svg" xmlns:xlink="http://www.w3.org/1999/xlink" x="0px" y="0px" width="62px" height="64px"
	 viewBox="0 0 62 64" enable-background="new 0 0 62 64" xml:space="preserve">
<title>Person-add</title>
<desc>Created with Sketch.</desc>
<g id="Page-1" sketch:type="MSPage">
	<g id="Person-add" transform="translate(1.000000, 1.000000)" sketch:type="MSLayerGroup">
		<path id="Shape" sketch:type="MSShapeGroup" fill="none" stroke="#6B6C6E" stroke-width="2" stroke-linejoin="round" d="
			M49.1,46.2c-3.2-1.2-6.8-2.1-8.3-2.9c-2.6-1.3-6-3.7-6-5.8c0-1.1,0.4-1.8,0.8-2c5-2.8,6.7-12,7-12c1.7,0,2.9-4.3,2.9-7.1
			c0-2.3-0.7-2.2-1.9-2.9v-0.3C43.6,5.7,37.7,0,30.3,0C23,0,16.7,6,16.7,13.4v0.3C15.5,14.4,15,14.8,15,17c0,2.9,1,6.9,2.7,6.9
			c0.3,0,2.5,8.8,7.3,11.8c0.3,0.2,0.8,0.7,0.8,1.7c0,2.4-3.2,4.5-5.9,5.9C16.6,45,0.2,46.4,0.2,62h49.2"/>
		<path id="Shape_1_" sketch:type="MSShapeGroup" fill="none" stroke="#6B6C6E" stroke-width="2" stroke-linejoin="round" d="
			M55.1,62v-5.1H60v-6h-5V46h-6v4.9h-5v6h4.9V62H55.1z"/>
	</g>
</g>
</svg>
